# Blender v2.93.3 OBJ File: 'Hex.blend'
# www.blender.org
mtllib Hex.mtl
o Cylinder.001
v 0.000000 -0.125000 0.576647
v 0.000000 0.000000 0.576647
v -0.500000 -0.125000 0.288324
v -0.500000 0.000000 0.288324
v -0.500000 -0.125000 -0.288323
v -0.500000 0.000000 -0.288323
v -0.000000 -0.125000 -0.576647
v -0.000000 0.000000 -0.576647
v 0.500000 -0.125000 -0.288324
v 0.500000 0.000000 -0.288324
v 0.500000 -0.125000 0.288323
v 0.500000 0.000000 0.288323
vt 0.969228 0.908174
vt 0.969228 0.958768
vt 0.813962 0.958768
vt 0.813962 0.908174
vt 0.658695 0.958768
vt 0.658695 0.908174
vt 0.503429 0.958768
vt 0.503429 0.908174
vt 0.348163 0.958768
vt 0.348163 0.908174
vt 0.460607 0.408992
vt 0.249007 0.531159
vt 0.037408 0.408992
vt 0.037408 0.164658
vt 0.249007 0.042491
vt 0.460607 0.164658
vt 0.192897 0.958768
vt 0.192897 0.908174
vt 0.037631 0.958768
vt 0.037631 0.908174
vt 0.726987 0.845028
vt 0.938587 0.722861
vt 0.938587 0.478526
vt 0.726987 0.356359
vt 0.515387 0.478527
vt 0.515387 0.722861
vn -0.4995 0.0000 0.8663
vn -1.0000 0.0000 -0.0000
vn -0.4995 0.0000 -0.8663
vn 0.4995 0.0000 -0.8663
vn 0.0000 1.0000 0.0000
vn 1.0000 0.0000 0.0000
vn 0.4995 0.0000 0.8663
vn 0.0000 -1.0000 0.0000
usemtl Tile.001
s off
f 1/1/1 2/2/1 4/3/1 3/4/1
f 3/4/2 4/3/2 6/5/2 5/6/2
f 5/6/3 6/5/3 8/7/3 7/8/3
f 7/8/4 8/7/4 10/9/4 9/10/4
f 4/11/5 2/12/5 12/13/5 10/14/5 8/15/5 6/16/5
f 9/10/6 10/9/6 12/17/6 11/18/6
f 11/18/7 12/17/7 2/19/7 1/20/7
f 1/21/8 3/22/8 5/23/8 7/24/8 9/25/8 11/26/8
